<svg xmlns="http://www.w3.org/2000/svg" xmlns:xlink="http://www.w3.org/1999/xlink" width="16" height="16" viewBox="0 0 16 16"><filter id="a" width="100%" height="100%" x="0%" y="0%"><feColorMatrix in="SourceGraphic" type="matrix" values="0 0 0 0 1 0 0 0 0 1 0 0 0 0 1 0 0 0 1 0"/></filter><mask id="b"><g filter="url(#a)"><rect width="16" height="16" fill-opacity=".35"/></g></mask><clipPath id="c"><rect width="192" height="152"/></clipPath><mask id="d"><g filter="url(#a)"><rect width="16" height="16" fill-opacity=".393"/></g></mask><linearGradient id="e" x1="88.596" x2="536.596" y1="-449.394" y2="-449.394" gradientTransform="matrix(0.232143 0 0 0.197368 -8.513947 204.696167)" gradientUnits="userSpaceOnUse"><stop offset="0"/><stop offset=".038" stop-color="#c0bfbc"/><stop offset=".077"/><stop offset=".923"/><stop offset=".962" stop-color="#c0bfbc"/><stop offset="1"/></linearGradient><clipPath id="f"><rect width="192" height="152"/></clipPath><path fill="#241f31" d="m 1.875 1 l 6.5625 6.5625 l 6.5625 -6.5625 z m 0 0"/><g clip-path="url(#c)" mask="url(#b)" transform="matrix(1 0 0 1 -160 0)"><path fill="#241f31" d="m 161 15 l 6.5625 -6.5625 l -6.5625 -6.5625 z m 0 0"/></g><path fill="#241f31" d="m 15 15 v -12.25 l -12.25 12.25 z m 0 0"/><g clip-path="url(#f)" mask="url(#d)" transform="matrix(1 0 0 1 -160 0)"><path fill="url(#e)" d="m 12.054688 104 v 4 c 0 4.433594 3.566406 8 8 8 h 88 c 4.429687 0 8 -3.566406 8 -8 v -4 c 0 4.433594 -3.570313 8 -8 8 h -88 c -4.433594 0 -8 -3.566406 -8 -8 z m 0 0"/></g></svg>