<svg xmlns="http://www.w3.org/2000/svg" xmlns:svg="http://www.w3.org/2000/svg" xmlns:xlink="http://www.w3.org/1999/xlink" id="svg11300" width="192" height="152" version="1.0" viewBox="0 0 192 152" style="display:inline;enable-background:new"><title id="title4162">Adwaita Icon Template</title><defs id="defs3"><linearGradient id="linearGradient1153"><stop id="stop1141" offset="0" style="stop-color:#000;stop-opacity:1"/><stop style="stop-color:#c0bfbc;stop-opacity:1" id="stop1143" offset=".038"/><stop id="stop1145" offset=".077" style="stop-color:#000;stop-opacity:1"/><stop style="stop-color:#000;stop-opacity:1" id="stop1147" offset=".923"/><stop id="stop1149" offset=".962" style="stop-color:#c0bfbc;stop-opacity:1"/><stop id="stop1151" offset="1" style="stop-color:#000;stop-opacity:1"/></linearGradient><linearGradient id="linearGradient1240" x1="88.596" x2="536.596" y1="-449.394" y2="-449.394" gradientTransform="matrix(0.23214285,0,0,0.19736843,-455.26746,360.69618)" gradientUnits="userSpaceOnUse" xlink:href="#linearGradient1153"/></defs><metadata id="metadata4"/><g id="layer1" transform="translate(8,-156)" style="display:inline"><g id="layer4" style="display:inline"><rect id="hicolor" width="128" height="128" x="-8" y="156" style="display:inline;overflow:visible;visibility:visible;fill:#f0f0f0;fill-opacity:0;fill-rule:nonzero;stroke:none;stroke-width:.5;marker:none;enable-background:accumulate"/><rect style="display:inline;overflow:visible;visibility:visible;fill:#f0f0f0;fill-opacity:0;fill-rule:nonzero;stroke:none;stroke-width:.5;marker:none;enable-background:accumulate" id="symbolic" width="16" height="16" x="152" y="156"/></g><g id="layer9" style="display:inline"><g id="g4742" transform="matrix(0.87500208,0,0,0.87500208,12.999651,6.499626)" style="stroke-width:1.14285004"><path id="path1030" d="m 161,172 7.5,7.5 7.5,-7.5 z" style="fill:#241f31;stroke:none;stroke-width:1.14285004px;stroke-linecap:butt;stroke-linejoin:miter;stroke-opacity:1"/><path style="opacity:.35;fill:#241f31;stroke:none;stroke-width:1.14285004px;stroke-linecap:butt;stroke-linejoin:miter;stroke-opacity:1" id="path1034" d="m 160,188 7.5,-7.5 -7.5,-7.5 z"/><path style="fill:#241f31;stroke:none;stroke-width:1.14285004px;stroke-linecap:butt;stroke-linejoin:miter;stroke-opacity:1" id="path1014" d="M 175.99998,187.99998 V 174 L 162,187.99998 Z"/></g><path style="fill:#241f31;stroke:none;stroke-width:1px;stroke-linecap:butt;stroke-linejoin:miter;stroke-opacity:1" id="path1017" d="m 211.5,172 7.5,-7.5 -7.5,-7.5 z"/><path style="fill:#241f31;stroke:none;stroke-width:1px;stroke-linecap:butt;stroke-linejoin:miter;stroke-opacity:1" id="path1019" d="m 212.5,156 7.5,7.5 7.5,-7.5 z"/><g id="g4737" transform="translate(32,-16)"><path style="fill:#241f31;stroke:none;stroke-width:1px;stroke-linecap:butt;stroke-linejoin:miter;stroke-opacity:1" id="path4728" d="m 161,172 7.5,7.5 7.5,-7.5 z"/><path id="path4730" d="m 160,188 7.5,-7.5 -7.5,-7.5 z" style="opacity:1;fill:#241f31;stroke:none;stroke-width:1px;stroke-linecap:butt;stroke-linejoin:miter;stroke-opacity:1"/><path id="path4732" d="M 175.99998,187.99998 V 174 L 162,187.99998 Z" style="fill:#241f31;stroke:none;stroke-width:1px;stroke-linecap:butt;stroke-linejoin:miter;stroke-opacity:1"/></g><g id="g1238" transform="translate(438.7535)"><g style="stroke-width:.73076898" id="g1213" transform="matrix(1.3684211,0,0,1.3684211,-470.17368,-100.21054)"><path id="path1193" d="m 28,28 c -2.216,0 -4.21611,0.891891 -5.662109,2.337891 L 72,80 121.66211,30.337891 C 120.21611,28.891891 118.216,28 116,28 Z" transform="matrix(0.73076921,0,0,0.73076921,11.384617,175.53847)" style="fill:#f76a8c;fill-opacity:1;stroke:none;stroke-width:1px;stroke-linecap:butt;stroke-linejoin:miter;stroke-opacity:1"/><path id="path1197" d="M 121.66211,30.337891 98,54 124,80 V 36 c 0,-2.216 -0.89189,-4.216109 -2.33789,-5.662109 z" transform="matrix(0.73076921,0,0,0.73076921,11.384617,175.53847)" style="fill:#d0f08f;fill-opacity:1;stroke:none;stroke-width:1px;stroke-linecap:butt;stroke-linejoin:miter;stroke-opacity:1"/><rect style="display:inline;opacity:1;vector-effect:none;fill:#fbfafa;fill-opacity:1;stroke:none;stroke-width:.18269201;stroke-linecap:butt;stroke-linejoin:miter;stroke-miterlimit:4;stroke-dasharray:none;stroke-dashoffset:0;stroke-opacity:1;marker:none;marker-start:none;marker-mid:none;marker-end:none;paint-order:normal;enable-background:new" id="rect1199" width="26.87" height="26.87" x="-120.208" y="210.718" transform="rotate(-45)"/><path style="fill:#7ff0c1;fill-opacity:1;stroke:none;stroke-width:1px;stroke-linecap:butt;stroke-linejoin:miter;stroke-opacity:1" id="path1204" d="M 116.1582 64 L 69.181641 110.97656 L 69.181641 116 L 108.1582 116 C 112.5902 116 116.1582 112.432 116.1582 108 L 116.1582 64 z" transform="matrix(0.73076921,0,0,0.73076921,17.114746,187.23077)"/><path id="path1207" d="M 82.99998,253 H 45 l 19,-19 z" style="fill:#f8c258;fill-opacity:1;stroke:none;stroke-width:.73076898px;stroke-linecap:butt;stroke-linejoin:miter;stroke-opacity:1"/><path style="fill:#f7fa96;fill-opacity:1;stroke:none;stroke-width:.730769px;stroke-linecap:butt;stroke-linejoin:miter;stroke-opacity:1" id="path1211" d="M 44.999586,253 27.708045,270.29154 C 28.764737,271.34823 30.226356,272 31.84574,272 h 30.409705 1.74414 2.302209 v -2.30221 L 82.999585,253 Z"/><path style="fill:#6562eb;fill-opacity:1;stroke:none;stroke-width:1px;stroke-linecap:butt;stroke-linejoin:miter;stroke-opacity:1" id="path1195" d="M 14.496094 14.337891 C 13.050094 15.783888 12.158203 17.784006 12.158203 20 L 12.158203 108 C 12.158203 110.21601 13.050094 112.21611 14.496094 113.66211 C 15.254589 114.4206 16.168987 115.02096 17.183594 115.42578 L 17.183594 110.97461 L 64.158203 64 L 14.496094 14.337891 z" transform="matrix(0.73076921,0,0,0.73076921,17.114746,187.23077)"/></g><g style="fill:#241f31;fill-opacity:1" id="g1221" transform="translate(-446.70058,-16)"><path style="color:#000;font-style:normal;font-variant:normal;font-weight:400;font-stretch:normal;font-size:medium;line-height:normal;font-family:sans-serif;font-variant-ligatures:normal;font-variant-position:normal;font-variant-caps:normal;font-variant-numeric:normal;font-variant-alternates:normal;font-feature-settings:normal;text-indent:0;text-align:start;text-decoration:none;text-decoration-line:none;text-decoration-style:solid;text-decoration-color:#000;letter-spacing:normal;word-spacing:normal;text-transform:none;writing-mode:lr-tb;direction:ltr;text-orientation:mixed;dominant-baseline:auto;baseline-shift:baseline;text-anchor:start;white-space:normal;shape-padding:0;clip-rule:nonzero;display:inline;overflow:visible;visibility:visible;opacity:1;isolation:auto;mix-blend-mode:normal;color-interpolation:sRGB;color-interpolation-filters:linearRGB;solid-color:#000;solid-opacity:1;vector-effect:none;fill:#241f31;fill-opacity:1;fill-rule:nonzero;stroke:none;stroke-width:4;stroke-linecap:butt;stroke-linejoin:miter;stroke-miterlimit:4;stroke-dasharray:none;stroke-dashoffset:0;stroke-opacity:1;color-rendering:auto;image-rendering:auto;shape-rendering:auto;text-rendering:auto;enable-background:accumulate" id="path1215" d="m 23.9375,29.109375 c -0.583787,0.343813 -1.123764,0.752671 -1.599609,1.228516 -0.475845,0.475845 -0.884703,1.015822 -1.228516,1.599609 L 69.171875,80 l -24,24 -0.585937,0.58594 -21.628907,21.6289 c 1.108756,0.89973 2.464516,1.50158 3.953125,1.70313 L 46.828125,108 h 46.34375 l -20,20 h 5.65625 L 124,82.828125 v -5.65625 L 100.82812,54 122.89062,31.9375 c -0.34381,-0.583787 -0.75267,-1.123764 -1.22851,-1.599609 -0.47585,-0.475845 -1.01582,-0.884703 -1.59961,-1.228516 L 72,77.171875 Z M 98,56.828125 121.17188,80 98,103.17188 74.828125,80 Z m -26,26 L 93.171875,104 h -42.34375 z" transform="translate(-8,156)"/><path style="fill:#241f31;fill-opacity:1;stroke:none;stroke-width:1px;stroke-linecap:butt;stroke-linejoin:miter;stroke-opacity:1" id="path1217" d="m 22.957031,126.21484 v 4 c 1.108756,0.89973 2.464516,1.50158 3.953125,1.70313 v -4 c -1.488609,-0.20155 -2.844369,-0.8034 -3.953125,-1.70313 z" transform="translate(-8,156)"/><rect style="opacity:1;vector-effect:none;fill:#241f31;fill-opacity:1;stroke:none;stroke-width:4;stroke-linecap:round;stroke-linejoin:round;stroke-miterlimit:4;stroke-dasharray:none;stroke-dashoffset:0;stroke-opacity:1" id="rect1219" width="5.656" height="4" x="65.172" y="284"/></g><path id="path1223" d="m -434.70058,260 v 4 c 0,4.432 3.568,8 8,8 h 88 c 4.432,0 8,-3.568 8,-8 v -4 c 0,4.432 -3.568,8 -8,8 h -88 c -4.432,0 -8,-3.568 -8,-8 z" style="display:inline;opacity:.393;vector-effect:none;fill:url(#linearGradient1240);fill-opacity:1;stroke:none;stroke-width:.25;stroke-linecap:butt;stroke-linejoin:miter;stroke-miterlimit:4;stroke-dasharray:none;stroke-dashoffset:0;stroke-opacity:1;marker:none;marker-start:none;marker-mid:none;marker-end:none;paint-order:normal;enable-background:new"/></g></g><g id="layer3" style="display:none"><circle id="circle2892" cx="56" cy="220" r="59.504" style="display:inline;opacity:.1;vector-effect:none;fill:none;fill-opacity:1;stroke:#000;stroke-width:.99000001;stroke-linecap:butt;stroke-linejoin:miter;stroke-miterlimit:4;stroke-dasharray:.99,.99;stroke-dashoffset:0;stroke-opacity:1;marker:none;marker-start:none;marker-mid:none;marker-end:none;paint-order:normal;enable-background:new"/><rect id="rect2894" width="87.01" height="111.01" x="12.495" y="164.495" rx="8.701" ry="7.929" style="display:inline;opacity:.1;vector-effect:none;fill:none;fill-opacity:1;stroke:#000;stroke-width:.99000001;stroke-linecap:butt;stroke-linejoin:miter;stroke-miterlimit:4;stroke-dasharray:.99,.99;stroke-dashoffset:0;stroke-opacity:1;marker:none;marker-start:none;marker-mid:none;marker-end:none;paint-order:normal;enable-background:new"/><rect id="rect2896" width="103.01" height="103.01" x="4.495" y="168.495" rx="7.924" ry="7.924" style="display:inline;opacity:.1;vector-effect:none;fill:none;fill-opacity:1;stroke:#000;stroke-width:.99000001;stroke-linecap:butt;stroke-linejoin:miter;stroke-miterlimit:4;stroke-dasharray:.99,.99;stroke-dashoffset:0;stroke-opacity:1;marker:none;marker-start:none;marker-mid:none;marker-end:none;paint-order:normal;enable-background:new"/><rect id="rect2898" width="111.01" height="87.01" x=".495" y="184.495" rx="7.929" ry="8.701" style="display:inline;opacity:.1;vector-effect:none;fill:none;fill-opacity:1;stroke:#000;stroke-width:.99000001;stroke-linecap:butt;stroke-linejoin:miter;stroke-miterlimit:4;stroke-dasharray:.99,.99;stroke-dashoffset:0;stroke-opacity:1;marker:none;marker-start:none;marker-mid:none;marker-end:none;paint-order:normal;enable-background:new"/><path id="path2900" d="M -7.9999738,272.99999 H 120.00003" style="display:inline;fill:none;stroke:#62a0ea;stroke-width:2;stroke-linecap:butt;stroke-linejoin:miter;stroke-miterlimit:4;stroke-dasharray:none;stroke-opacity:1;enable-background:new"/><rect id="hicolor-6" width="128" height="128" x="-8" y="156" style="display:inline;overflow:visible;visibility:visible;fill:#f0f0f0;fill-opacity:0;fill-rule:nonzero;stroke:#000;stroke-width:2;stroke-miterlimit:4;stroke-dasharray:none;stroke-opacity:.14960602;marker:none;enable-background:accumulate"/><rect style="display:inline;overflow:visible;visibility:visible;fill:#f0f0f0;fill-opacity:0;fill-rule:nonzero;stroke:#000;stroke-width:2;stroke-miterlimit:4;stroke-dasharray:none;stroke-opacity:.14960602;marker:none;enable-background:accumulate" id="symbolic-6" width="16" height="16" x="152" y="156"/></g></g></svg>