<svg xmlns="http://www.w3.org/2000/svg" xmlns:xlink="http://www.w3.org/1999/xlink" width="128" height="128" viewBox="0 0 128 128"><filter id="a" width="100%" height="100%" x="0%" y="0%"><feColorMatrix in="SourceGraphic" type="matrix" values="0 0 0 0 1 0 0 0 0 1 0 0 0 0 1 0 0 0 1 0"/></filter><mask id="b"><g filter="url(#a)"><rect width="128" height="128" fill-opacity=".35"/></g></mask><clipPath id="c"><rect width="192" height="152"/></clipPath><mask id="d"><g filter="url(#a)"><rect width="128" height="128" fill-opacity=".393"/></g></mask><linearGradient id="e" x1="88.596" x2="536.596" y1="-449.394" y2="-449.394" gradientTransform="matrix(0.232143 0 0 0.197368 -8.513947 204.696167)" gradientUnits="userSpaceOnUse"><stop offset="0"/><stop offset=".038" stop-color="#c0bfbc"/><stop offset=".077"/><stop offset=".923"/><stop offset=".962" stop-color="#c0bfbc"/><stop offset="1"/></linearGradient><clipPath id="f"><rect width="192" height="152"/></clipPath><g clip-path="url(#c)" mask="url(#b)"><path fill="#241f31" d="m 161 15 l 6.5625 -6.5625 l -6.5625 -6.5625 z m 0 0"/></g><path fill="#f76a8c" d="m 20.160156 12 c -2.21875 0 -4.21875 0.890625 -5.664062 2.335938 l 49.664062 49.664062 l 49.660156 -49.664062 c -1.445312 -1.445313 -3.445312 -2.335938 -5.660156 -2.335938 z m 0 0"/><path fill="#d0f08f" d="m 113.820312 14.335938 l -23.660156 23.664062 l 26 26 v -44 c 0 -2.214844 -0.894531 -4.214844 -2.339844 -5.664062 z m 0 0"/><path fill="#fbfafa" d="m 64.160156 64 l 26 -26 l 26 26 l -26 26 z m 0 0"/><path fill="#7ff0c1" d="m 116.160156 64 l -46.976562 46.976562 v 5.023438 h 38.976562 c 4.429688 0 8 -3.566406 8 -8 z m 0 0"/><path fill="#f8c258" d="m 90.160156 90 h -52 l 26 -26 z m 0 0"/><path fill="#f7fa96" d="m 38.160156 90 l -23.664062 23.660156 c 1.445312 1.449219 3.445312 2.339844 5.664062 2.339844 h 47.148438 v -3.152344 l 22.851562 -22.847656 z m 0 0"/><path fill="#6562eb" d="m 14.496094 14.335938 c -1.445313 1.449218 -2.335938 3.449218 -2.335938 5.664062 v 88 c 0 2.214844 0.890625 4.214844 2.335938 5.660156 c 0.757812 0.761719 1.671875 1.359375 2.6875 1.765625 v -4.453125 l 46.976562 -46.972656 z m 0 0"/><g fill="#241f31"><path d="m 15.992188 13.109375 c -0.585938 0.34375 -1.125 0.753906 -1.601563 1.230469 c -0.476563 0.472656 -0.882813 1.015625 -1.226563 1.597656 l 48.0625 48.0625 l -46.214843 46.214844 c 1.105469 0.898437 2.460937 1.5 3.953125 1.703125 l 19.917968 -19.917969 h 46.34375 l -20 20 h 5.65625 l 45.171876 -45.171875 v -5.65625 l -23.171876 -23.171875 l 22.0625 -22.0625 c -0.34375 -0.582031 -0.753906 -1.125 -1.230468 -1.597656 c -0.476563 -0.476563 -1.015625 -0.886719 -1.597656 -1.230469 l -48.0625 48.0625 z m 74.0625 27.71875 l 23.171874 23.171875 l -23.171874 23.171875 l -23.171876 -23.171875 z m -26 26 l 21.171874 21.171875 h -42.34375 z m 0 0"/><path d="m 15.011719 110.214844 v 4 c 1.105469 0.898437 2.460937 1.5 3.953125 1.703125 v -4 c -1.492188 -0.203125 -2.847656 -0.804688 -3.953125 -1.703125 z m 0 0"/><path d="m 65.226562 112 h 5.65625 v 4 h -5.65625 z m 0 0"/></g><g clip-path="url(#f)" mask="url(#d)"><path fill="url(#e)" d="m 12.054688 104 v 4 c 0 4.433594 3.566406 8 8 8 h 88 c 4.429687 0 8 -3.566406 8 -8 v -4 c 0 4.433594 -3.570313 8 -8 8 h -88 c -4.433594 0 -8 -3.566406 -8 -8 z m 0 0"/></g></svg>